HIERARCHY
ROOT Hips
{
  OFFSET 13.6774 106.653 -34.4427
  CHANNELS 6 Xposition Yposition Zposition Zrotation Xrotation Yrotation
  JOINT ToSpine
  {
    OFFSET -2.69724 7.43032 -0.144315
    CHANNELS 3 Zrotation Xrotation Yrotation
    JOINT Spine
    {
      OFFSET -0.0310711 10.7595 1.96963
      CHANNELS 3 Zrotation Xrotation Yrotation
      JOINT Spine1
      {
        OFFSET 19.9056 3.91189 0.764692
        CHANNELS 3 Zrotation Xrotation Yrotation
        JOINT Neck
        {
          OFFSET 25.9749 7.03908 -0.130764
          CHANNELS 3 Zrotation Xrotation Yrotation
          JOINT Head
          {
            OFFSET 9.52751 0.295786 -0.907742
            CHANNELS 3 Zrotation Xrotation Yrotation
            End Site
            {
              OFFSET 16.4037 0.713936 2.7358
            }
          }
        }
        JOINT LeftShoulder
        {
          OFFSET 17.7449 4.33886 11.7777
          CHANNELS 3 Zrotation Xrotation Yrotation
          JOINT LeftArm
          {
            OFFSET 0.911315 1.27913 9.80584
            CHANNELS 3 Zrotation Xrotation Yrotation
            JOINT LeftForeArm
            {
              OFFSET 28.6126 1.18197 -3.53199
              CHANNELS 3 Zrotation Xrotation Yrotation
              JOINT LeftHand
              {
                OFFSET 27.5088 0.0218783 0.327423
                CHANNELS 3 Zrotation Xrotation Yrotation
                End Site
                {
                  OFFSET 18.6038 -0.000155887 0.382096
                }
              }
            }
          }
        }
        JOINT RightShoulder
        {
          OFFSET 17.1009 2.89543 -12.2328
          CHANNELS 3 Zrotation Xrotation Yrotation
          JOINT RightArm
          {
            OFFSET 1.4228 0.178766 -10.211
            CHANNELS 3 Zrotation Xrotation Yrotation
            JOINT RightForeArm
            {
              OFFSET 28.733 1.87905 2.64907
              CHANNELS 3 Zrotation Xrotation Yrotation
              JOINT RightHand
              {
                OFFSET 27.4588 0.290562 -0.101845
                CHANNELS 3 Zrotation Xrotation Yrotation
                End Site
                {
                  OFFSET 17.8396 -0.255518 -0.000602873
                }
              }
            }
          }
        }
      }
    }
  }
  JOINT LeftUpLeg
  {
    OFFSET -5.61296 -2.22332 -10.2353
    CHANNELS 3 Zrotation Xrotation Yrotation
    JOINT LeftLeg
    {
      OFFSET 2.56703 -44.7417 -7.93097
      CHANNELS 3 Zrotation Xrotation Yrotation
      JOINT LeftFoot
      {
        OFFSET 3.16933 -46.5642 -3.96578
        CHANNELS 3 Zrotation Xrotation Yrotation
        JOINT LeftToeBase
        {
          OFFSET 0.346054 -6.02161 12.8035
          CHANNELS 3 Zrotation Xrotation Yrotation
          End Site
          {
            OFFSET 0.134235 -1.35082 5.13018
          }
        }
      }
    }
  }
  JOINT RightUpLeg
  {
    OFFSET -5.7928 -1.72406 10.6446
    CHANNELS 3 Zrotation Xrotation Yrotation
    JOINT RightLeg
    {
      OFFSET -2.57161 -44.7178 -7.85259
      CHANNELS 3 Zrotation Xrotation Yrotation
      JOINT RightFoot
      {
        OFFSET -3.10148 -46.5936 -4.03391
        CHANNELS 3 Zrotation Xrotation Yrotation
        JOINT RightToeBase
        {
          OFFSET -0.0828122 -6.13587 12.8035
          CHANNELS 3 Zrotation Xrotation Yrotation
          End Site
          {
            OFFSET -0.131328 -1.35082 5.13018
          }
        }
      }
    }
  }
}
MOTION
Frames: 17
Frame Time: 0.03333333333333333
0.0000 93.1000 0.0000 64.2575 -40.6875 -20.9830 -71.0016 0.1627 87.9952 92.8946 69.0938 -7.3818 5.2449 20.1973 -3.3999 -136.2622 26.6730 -177.2126 173.6256 63.8746 -148.1503 -2.5549 -26.9514 -33.9062 -48.9619 -0.6070 -159.0146 14.7347 21.1667 -36.8489 -1.9219 -0.1563 1.3023 -4.0000 12.0723 44.8743 -61.1730 -2.9990 123.8592 4.9365 -31.7243 19.7038 3.2673 0.0109 1.6531 -55.1117 20.1124 107.4949 -6.0785 55.5842 -13.2848 -4.3667 -23.2770 -3.0031 8.8790 -19.5866 23.2359 -16.8846 -19.0890 91.1631 2.7805 56.0718 -0.1335 -5.5977 -3.0070 0.2716 1.1074 -10.4917 -7.0355 
0.0000 93.1000 0.0000 65.0745 -40.3243 -20.9183 -71.0016 0.0868 87.9964 94.0157 68.9630 -8.0778 4.8198 19.5851 -2.7297 -137.1996 26.7983 -177.2728 173.6598 64.1594 -148.0852 -2.5367 -26.9629 -33.3176 -49.0762 -0.2244 -158.8076 14.8425 21.3092 -37.1234 -1.9657 -0.1834 1.3053 -3.9203 11.9641 44.9622 -60.8461 -3.0615 124.0683 5.2397 -30.8105 19.9151 3.2468 0.1040 1.7680 -53.8850 19.7438 106.8542 -6.4468 56.1855 -11.8433 -3.8119 -23.1635 -3.1856 9.2340 -20.0401 23.4697 -16.7625 -19.9476 90.5357 2.9188 56.2283 -0.1417 -5.1208 -2.3023 0.0752 0.6709 -9.8413 -6.1473 
0.0000 93.1000 0.0000 65.0583 -40.0453 -20.0379 -70.9990 0.2813 87.9986 94.1158 69.1736 -8.2591 4.6697 19.2156 -1.9751 -137.4568 26.8256 -177.0719 173.7645 64.3098 -148.2005 -2.5784 -26.6772 -32.1295 -48.8327 0.0752 -159.9820 15.9831 21.5843 -37.8223 -1.9185 0.0359 1.2915 -3.9380 11.6920 45.6975 -59.0407 -1.9892 123.8854 6.3878 -28.3208 20.9029 2.9522 -0.1132 1.5854 -53.7608 20.0820 107.1440 -6.4673 57.2094 -11.6675 -4.1079 -23.0069 -3.1315 9.2117 -19.4838 23.4567 -16.6697 -19.9787 91.2067 2.8086 56.4419 -0.0371 -4.7846 -2.9401 0.2352 0.6988 -9.4688 -7.1851 
0.0000 93.1000 0.0000 65.0167 -40.7088 -21.0411 -71.0009 0.4538 87.9982 92.9957 69.2156 -7.6675 4.8075 18.9649 -1.6676 -138.2431 26.2676 -177.9055 173.6510 63.8070 -147.1685 -2.5776 -26.2132 -31.3816 -50.1507 0.1441 -159.8847 16.1539 22.3682 -38.3366 -1.6457 0.2758 1.2731 -4.0425 11.0092 46.1175 -56.3974 -0.2991 123.0714 8.3627 -25.6648 22.2990 2.4496 -0.3491 1.4063 -53.2096 21.0711 106.9066 -7.1577 58.3588 -13.0040 -4.3530 -22.0063 -3.0276 10.1824 -21.1820 25.6516 -16.1179 -18.9911 92.1478 3.6495 57.1079 1.0981 -4.2532 -3.3456 0.3156 1.0022 -8.3595 -10.2926 
0.0000 93.1000 0.0000 64.2039 -40.5787 -21.0692 -71.0024 0.4246 87.9986 92.1768 69.0938 -7.2364 4.8775 19.1215 -2.2732 -137.4170 26.2216 -179.3286 174.5941 63.9924 -148.4158 -2.4101 -26.1945 -30.7296 -51.6091 -0.3712 -159.8771 16.9339 22.5799 -40.3595 -1.3373 0.2202 1.1291 -4.0643 10.8043 46.1050 -56.9770 -0.9717 121.8506 12.1923 -23.7731 27.8200 2.2060 -0.2908 1.5035 -52.8303 20.8295 107.0905 -7.1751 59.4428 -13.0211 -3.8218 -21.8803 -3.0820 10.6611 -21.4279 24.3779 -15.9088 -18.4815 91.9841 3.8101 57.8083 0.0938 -5.0810 -3.2998 0.4949 0.8855 -9.2191 -9.6771 
0.0000 93.1000 0.0000 63.9521 -39.9735 -19.8187 -71.0012 0.2894 87.9997 92.0069 68.5005 -6.9731 4.7102 18.9525 -2.4886 -137.3565 26.5470 -180.1749 175.6210 64.2050 -148.7651 -1.4568 -25.7683 -29.7003 -54.2920 0.2095 -160.7739 18.5542 22.1139 -44.0406 -1.0727 -0.0140 1.0488 -3.5703 10.9521 45.1367 -61.1602 -3.1492 120.8036 17.1896 -24.4615 36.7052 2.0538 0.0434 2.0779 -52.8813 20.9622 106.0625 -6.9963 58.4671 -12.7301 -3.8566 -22.1454 -3.2820 10.0119 -20.4762 24.9380 -14.9991 -18.9065 90.7572 3.7220 59.2024 0.1323 -5.1941 -4.5616 0.7945 1.2128 -8.2657 -11.0863 
0.0000 93.1000 0.0000 63.9827 -38.7277 -20.7058 -70.9988 -0.0812 88.0010 92.0362 67.9072 -7.1160 4.2093 18.8352 -2.0559 -137.3037 26.6059 -180.1516 175.6721 64.9194 -148.5082 -0.6060 -24.3573 -27.7284 -56.8739 1.1909 -162.6454 19.7181 19.9460 -47.9095 -0.7379 -0.3444 0.8902 -3.2456 11.0680 45.3513 -64.9270 -3.6423 118.0325 21.5696 -21.6493 47.6536 2.0407 0.3591 2.3995 -53.1191 21.7769 104.8844 -7.3789 56.2788 -14.2283 -4.2113 -20.4651 -3.1847 9.7051 -20.9692 24.9413 -14.8546 -18.7695 89.5196 4.8677 61.1382 0.0500 -5.7518 -5.9952 1.1718 2.1435 -9.0228 -12.6470 
0.0000 93.1000 0.0000 63.1844 -38.5737 -21.1643 -70.9977 -0.5054 87.9999 92.9066 67.2819 -7.6825 3.5697 18.4975 -1.8919 -136.3539 26.2103 -179.9986 176.6908 64.0527 -148.5886 -0.5546 -22.5538 -24.6918 -60.1436 2.8389 -163.8572 18.8535 15.7713 -52.2841 0.1380 -0.4131 0.5527 -3.5499 11.3253 46.3529 -66.9782 -3.0433 116.7949 22.1799 -15.7022 58.2324 1.7223 0.2236 2.1321 -54.3044 22.1971 105.0290 -6.0271 53.1848 -13.9630 -4.5999 -18.7936 -2.8214 9.7229 -21.2177 23.1712 -15.0266 -17.7874 88.3428 4.7726 61.0182 0.1960 -6.9137 -8.2147 1.8231 2.4716 -9.6760 -11.8032 
0.0000 93.1000 0.0000 63.1288 -39.2873 -20.1197 -71.0031 -0.3046 87.9954 94.1938 67.0345 -8.3604 1.4189 18.2310 -1.1715 -136.4228 26.2711 -179.7453 177.7514 63.9217 -148.1296 -3.5993 -21.3830 -22.2718 -65.1965 4.1658 -164.9193 17.4592 9.9936 -59.7617 1.2667 0.7665 -0.5116 -5.3355 11.6142 45.7591 -70.1476 -3.1386 115.8929 17.9942 -8.1893 68.1511 0.2649 -1.4515 -0.0953 -56.7786 23.0281 104.1575 -5.0975 48.4406 -9.7662 -6.2227 -13.8894 -0.7486 10.4620 -21.5619 20.5001 -17.8258 -17.3225 87.0369 3.9856 61.4995 -0.7565 -5.3165 -10.1076 2.6127 0.9801 -8.6983 -8.5410 
0.0000 93.1000 0.0000 63.1604 -38.0545 -19.0811 -70.9952 -0.5319 87.9938 91.9496 67.0231 -7.1112 2.0606 17.0331 0.2975 -134.3194 26.4414 178.9425 178.8696 64.7015 -148.1501 -0.5896 -19.7026 -20.7983 -69.1878 6.7134 -164.8883 14.9592 6.5696 -64.8807 1.1134 -0.2437 0.5504 -3.5860 11.0992 42.7800 -75.7934 -5.9597 116.5982 16.5379 -4.4173 76.7855 0.9191 0.0257 1.1828 -57.5938 23.8086 100.7563 -2.4702 44.2976 -4.7983 -6.2028 -8.9348 -1.3810 6.7090 -18.4924 17.8408 -19.7937 -13.9216 84.5902 3.8131 60.3349 -2.9551 -5.0783 -12.1700 1.9581 0.4897 -8.3230 -8.2127 
0.0000 93.1000 0.0000 63.1843 -35.5245 -16.7732 -71.0101 -3.4591 87.9948 86.9201 67.8635 -4.2821 0.3138 16.7355 1.6583 -132.3459 26.8999 176.4606 178.2238 66.1326 -148.0003 -1.0265 -18.8329 -19.7768 -73.8881 9.4712 -166.8381 12.5610 4.2464 -70.0399 1.1716 -2.7064 2.0373 -4.1165 10.8368 39.3214 -82.9112 -8.7782 116.8631 18.6153 -2.4274 83.7583 2.5862 2.5133 3.0528 -54.8922 24.8829 98.1190 -1.9845 43.9614 2.6284 -7.2296 -4.8897 0.8826 2.6581 -12.1208 16.3194 -22.8412 -11.5844 82.8558 2.9680 58.9658 -5.0522 -4.0537 -13.6194 -0.0928 1.5594 -6.9614 -8.0838 
0.0000 93.1000 0.0000 63.8773 -34.9195 -14.9644 -70.9921 0.1306 88.0045 86.0772 67.7708 -4.2307 1.2811 16.9761 3.7139 -130.1431 26.7965 171.2622 -179.4758 68.1565 -151.2702 0.0914 -18.1182 -18.2200 -77.1184 11.6766 -168.9478 11.0575 2.6248 -73.2589 0.7314 0.2053 0.9180 -2.8269 10.7285 35.3298 -92.3441 -12.0525 115.1689 18.9750 -0.5394 88.8335 0.2592 -0.3093 0.5413 -50.2241 25.1453 97.0085 -2.1621 49.4239 6.9432 -6.6221 -4.3709 -0.6795 0.4841 -5.0833 13.6077 -27.0656 -10.2073 80.3651 3.0064 56.8292 -5.8397 -3.5463 -15.0687 0.8806 1.3266 -6.0080 -8.7083 
0.0000 93.1000 0.0000 65.2211 -32.0002 -13.0273 -70.9931 -0.2166 87.9998 91.0013 68.2078 -8.9674 0.5071 17.1635 3.9535 -126.3826 27.7115 165.3327 -175.6835 70.0880 -153.5071 0.6357 -18.1308 -17.0188 -79.0848 13.6928 -170.8371 11.7811 3.1457 -74.3879 0.8924 -0.1534 1.1006 -2.5399 10.3036 34.1222 -101.1899 -11.2761 111.7984 17.8209 0.9332 92.8154 0.4024 -0.1380 0.4860 -46.0218 23.6785 99.2105 -3.9770 55.3531 1.4567 -4.7243 -9.0190 -1.5499 2.0121 -7.3735 13.9023 -30.8652 -9.8447 76.1071 1.9483 54.3798 -6.1270 -4.6964 -15.0610 0.8814 0.9483 -5.9308 -7.7707 
0.0000 93.1000 0.0000 66.9008 -30.6877 -11.8794 -70.9950 -0.7922 87.9967 93.3651 69.0695 -11.8081 -0.3383 18.1867 4.2717 -123.1863 28.8745 162.3926 -177.3266 71.5426 -150.4357 0.4102 -18.0618 -17.0331 -79.9956 16.4440 -170.7125 13.6842 3.0432 -77.0325 0.6726 -0.5752 1.4323 -2.6112 10.0819 33.4844 -109.8508 -10.0837 107.9801 18.2499 0.8652 93.0826 0.6806 0.1069 0.1788 -42.9515 20.9756 103.8696 -6.3883 60.3446 -4.7390 -4.5352 -13.6090 -1.5969 3.4015 -10.0312 15.8585 -34.4090 -10.3059 73.6377 2.1513 51.6796 -4.8436 -4.4720 -11.7925 0.5322 0.9969 -8.8783 -2.7932 
0.0000 93.1000 0.0000 67.8722 -30.3389 -11.1324 -70.9990 -0.9084 87.9911 92.9460 69.8683 -11.4981 -0.6107 18.7394 3.6171 -120.3682 29.3297 158.0730 -176.4224 72.5331 -150.5282 -0.0487 -17.8155 -17.0621 -78.9724 19.0065 -169.8089 16.5610 2.7482 -79.3760 0.3178 -0.5808 1.7058 -2.6404 9.5159 32.8197 -116.7790 -8.3307 105.7876 18.3399 0.3424 91.5849 0.9041 -0.0193 -0.3677 -41.6609 18.0884 109.2179 -7.8588 60.3331 -13.4716 -5.3679 -13.9262 -1.2490 7.0431 -18.4524 19.5636 -37.8045 -10.7152 71.5123 1.9454 49.3623 -0.6940 -2.9645 -5.7722 0.0717 1.7227 -13.9676 0.8208 
0.0000 93.1000 0.0000 68.8769 -30.2942 -10.1416 -70.9971 -0.1762 87.9882 95.9626 69.9591 -14.2536 -0.1802 18.9602 4.0361 -119.2162 29.4096 155.9665 -177.6530 73.6039 -149.4947 -0.0929 -17.8443 -18.1079 -79.2295 20.5213 -165.9596 18.9450 1.9594 -82.1822 -0.0371 -0.0663 1.7742 -2.2995 9.3239 32.5817 -121.9868 -7.1233 103.9163 18.4604 -0.5308 88.0159 0.5211 -0.6177 -0.9516 -41.1517 14.7613 113.8993 -8.3368 58.2388 -17.8627 -5.4906 -13.2087 -1.4156 9.4645 -22.5546 19.9301 -39.0343 -12.1119 68.5801 3.1401 51.2211 3.0671 -1.0488 2.7582 -0.3726 1.4837 -17.7931 7.9347 
0.0000 93.1000 0.0000 69.9786 -31.3024 -8.2877 -70.9943 0.0555 87.9876 103.0897 70.0509 -19.3442 -0.4066 19.3209 3.9357 -118.2424 29.2986 155.9092 -178.8920 73.7891 -147.4173 -0.2830 -17.7862 -19.0995 -76.1951 23.1256 -161.7453 20.8632 1.0684 -85.0570 -0.5400 0.0635 1.8989 -2.3286 9.3375 32.5026 -125.6394 -6.0662 103.6567 18.1366 -1.3644 84.7229 0.2218 -0.7840 -1.0226 -41.3030 12.2447 117.1245 -7.4625 54.3296 -19.9516 -7.5710 -9.9831 -0.7256 9.6628 -23.3058 16.6283 -37.9573 -13.5763 67.9742 5.0855 56.0273 6.8216 0.5123 9.1444 -1.1179 0.0683 -13.8669 11.0612 
